<svg width="16" height="16" viewBox="0 0 16 16" fill="none" xmlns="http://www.w3.org/2000/svg">
<g clip-path="url(#clip0_1_161)">
<path d="M8 12V3.33331" stroke="currentColor" stroke-width="1.33333" stroke-linecap="round" stroke-linejoin="round"/>
<path d="M10 8.66667C9.4232 8.49806 8.91656 8.14708 8.556 7.66633C8.19544 7.18558 8.00036 6.60094 8 6C7.99964 6.60094 7.80456 7.18558 7.444 7.66633C7.08344 8.14708 6.5768 8.49806 6 8.66667" stroke="currentColor" stroke-width="1.33333" stroke-linecap="round" stroke-linejoin="round"/>
<path d="M11.732 4.33334C11.8854 4.06767 11.9756 3.77026 11.9957 3.46414C12.0158 3.15801 11.9652 2.85137 11.8478 2.56794C11.7304 2.2845 11.5494 2.03187 11.3187 1.82959C11.0881 1.62731 10.814 1.4808 10.5176 1.4014C10.2213 1.322 9.91069 1.31183 9.6098 1.37168C9.30891 1.43154 9.02583 1.55981 8.78244 1.74657C8.53906 1.93333 8.3419 2.17358 8.20623 2.44873C8.07055 2.72388 7.99999 3.02656 8 3.33334C8.00001 3.02656 7.92945 2.72388 7.79377 2.44873C7.6581 2.17358 7.46094 1.93333 7.21756 1.74657C6.97417 1.55981 6.69109 1.43154 6.3902 1.37168C6.08931 1.31183 5.77868 1.322 5.48236 1.4014C5.18603 1.4808 4.91193 1.62731 4.68129 1.82959C4.45064 2.03187 4.26961 2.2845 4.15222 2.56794C4.03483 2.85137 3.98421 3.15801 4.00429 3.46414C4.02436 3.77026 4.11459 4.06767 4.268 4.33334" stroke="currentColor" stroke-width="1.33333" stroke-linecap="round" stroke-linejoin="round"/>
<path d="M11.998 3.41669C12.3899 3.51744 12.7537 3.70605 13.0619 3.96823C13.37 4.2304 13.6145 4.55927 13.7768 4.92992C13.9391 5.30057 14.0148 5.70328 13.9984 6.10756C13.982 6.51184 13.8738 6.90708 13.682 7.26335" stroke="currentColor" stroke-width="1.33333" stroke-linecap="round" stroke-linejoin="round"/>
<path d="M12 12C12.587 12 13.1576 11.8063 13.6233 11.4489C14.089 11.0915 14.4238 10.5905 14.5757 10.0235C14.7276 9.45651 14.6882 8.85522 14.4636 8.3129C14.239 7.77057 13.8417 7.31751 13.3333 7.02399" stroke="currentColor" stroke-width="1.33333" stroke-linecap="round" stroke-linejoin="round"/>
<path d="M13.3113 11.6553C13.358 12.0168 13.3302 12.3841 13.2294 12.7344C13.1286 13.0846 12.9571 13.4106 12.7255 13.692C12.4938 13.9734 12.2069 14.2043 11.8825 14.3705C11.5581 14.5367 11.2031 14.6346 10.8393 14.6582C10.4756 14.6818 10.1109 14.6306 9.76773 14.5077C9.42457 14.3849 9.11023 14.193 8.84415 13.9438C8.57806 13.6947 8.36587 13.3937 8.22068 13.0594C8.07549 12.725 8.00038 12.3645 7.99999 12C7.9996 12.3645 7.92449 12.725 7.7793 13.0594C7.63411 13.3937 7.42191 13.6947 7.15583 13.9438C6.88974 14.193 6.57541 14.3849 6.23225 14.5077C5.88908 14.6306 5.52437 14.6818 5.16064 14.6582C4.79691 14.6346 4.44187 14.5367 4.11747 14.3705C3.79306 14.2043 3.50617 13.9734 3.27451 13.692C3.04285 13.4106 2.87134 13.0846 2.77058 12.7344C2.66982 12.3841 2.64193 12.0168 2.68866 11.6553" stroke="currentColor" stroke-width="1.33333" stroke-linecap="round" stroke-linejoin="round"/>
<path d="M4.00002 12C3.41301 12 2.84242 11.8063 2.37673 11.4489C1.91103 11.0915 1.57626 10.5905 1.42433 10.0235C1.2724 9.45651 1.31181 8.85522 1.53643 8.3129C1.76105 7.77057 2.15834 7.31751 2.66668 7.02399" stroke="currentColor" stroke-width="1.33333" stroke-linecap="round" stroke-linejoin="round"/>
<path d="M4.00199 3.41669C3.61013 3.51744 3.24633 3.70605 2.93815 3.96823C2.62997 4.2304 2.38549 4.55927 2.22322 4.92992C2.06096 5.30057 1.98517 5.70328 2.00159 6.10756C2.01801 6.51184 2.12621 6.90708 2.31799 7.26335" stroke="currentColor" stroke-width="1.33333" stroke-linecap="round" stroke-linejoin="round"/>
</g>
<defs>
<clipPath id="clip0_1_161">
<rect width="16" height="16" fill="white"/>
</clipPath>
</defs>
</svg>
