<svg width="16" height="16" viewBox="0 0 16 16" fill="none" xmlns="http://www.w3.org/2000/svg">
<g clip-path="url(#clip0_1_124)">
<path d="M11.7307 8.51201C11.9808 8.76211 12.32 8.90262 12.6737 8.90262C13.0274 8.90262 13.3666 8.76211 13.6167 8.51201C13.8668 8.26192 14.0073 7.92271 14.0073 7.56902C14.0073 7.21532 13.8668 6.87611 13.6167 6.62601L12.438 5.44801C12.6881 5.69803 13.0273 5.83844 13.3809 5.83838C13.556 5.83835 13.7294 5.80383 13.8912 5.7368C14.0529 5.66976 14.1999 5.57152 14.3237 5.44768C14.4475 5.32385 14.5457 5.17684 14.6126 5.01505C14.6796 4.85327 14.7141 4.67988 14.714 4.50478C14.714 4.32968 14.6795 4.1563 14.6125 3.99454C14.5454 3.83278 14.4472 3.68581 14.3233 3.56201L12.438 1.67668C12.188 1.42658 11.8489 1.28604 11.4953 1.28598C11.1416 1.28592 10.8024 1.42634 10.5523 1.67635C10.3022 1.92636 10.1617 2.26548 10.1616 2.61911C10.1616 2.97274 10.302 3.31192 10.552 3.56201L9.37402 2.38335C9.25018 2.25951 9.10316 2.16128 8.94136 2.09426C8.77956 2.02724 8.60615 1.99274 8.43101 1.99274C8.25588 1.99274 8.08247 2.02724 7.92067 2.09426C7.75887 2.16128 7.61185 2.25951 7.48802 2.38335C7.36418 2.50718 7.26595 2.6542 7.19893 2.816C7.13191 2.9778 7.09741 3.15122 7.09741 3.32635C7.09741 3.50148 7.13191 3.6749 7.19893 3.8367C7.26595 3.9985 7.36418 4.14551 7.48802 4.26935L11.7307 8.51201Z" stroke="#000000" stroke-width="1.33333" stroke-linecap="round" stroke-linejoin="round"/>
<path d="M1.66666 14.3333L2.59999 13.4" stroke="#000000" stroke-width="1.33333" stroke-linecap="round" stroke-linejoin="round"/>
<path d="M13.4 2.59999L14.3333 1.66666" stroke="#000000" stroke-width="1.33333" stroke-linecap="round" stroke-linejoin="round"/>
<path d="M3.56201 14.3233C3.81203 14.5734 4.15115 14.714 4.50478 14.714C4.67988 14.714 4.85327 14.6796 5.01505 14.6126C5.17684 14.5456 5.32385 14.4474 5.44768 14.3237C5.57152 14.1999 5.66976 14.0529 5.7368 13.8911C5.80383 13.7294 5.83835 13.556 5.83838 13.3809C5.83841 13.2058 5.80396 13.0324 5.73698 12.8706C5.67 12.7088 5.57181 12.5618 5.44801 12.438L6.62601 13.6167C6.87611 13.8667 7.21532 14.0073 7.56902 14.0073C7.92271 14.0073 8.26192 13.8667 8.51201 13.6167C8.76211 13.3666 8.90262 13.0273 8.90262 12.6737C8.90262 12.32 8.76211 11.9808 8.51201 11.7307L4.26935 7.48798C4.14551 7.36415 3.9985 7.26592 3.8367 7.1989C3.6749 7.13188 3.50148 7.09738 3.32635 7.09738C3.15122 7.09738 2.9778 7.13188 2.816 7.1989C2.6542 7.26592 2.50718 7.36415 2.38335 7.48798C2.25951 7.61182 2.16128 7.75884 2.09426 7.92064C2.02724 8.08244 1.99274 8.25585 1.99274 8.43098C1.99274 8.60612 2.02724 8.77953 2.09426 8.94133C2.16128 9.10313 2.25951 9.25015 2.38335 9.37398L3.56201 10.552C3.31192 10.302 2.97274 10.1616 2.61911 10.1616C2.26548 10.1617 1.92636 10.3022 1.67635 10.5523C1.42634 10.8024 1.28592 11.1416 1.28598 11.4952C1.28604 11.8489 1.42658 12.188 1.67668 12.438L3.56201 14.3233Z" stroke="#000000" stroke-width="1.33333" stroke-linecap="round" stroke-linejoin="round"/>
<path d="M6.39999 9.59999L9.59999 6.39999" stroke="#000000" stroke-width="1.33333" stroke-linecap="round" stroke-linejoin="round"/>
</g>
<defs>
<clipPath id="clip0_1_124">
<rect width="16" height="16" fill="white"/>
</clipPath>
</defs>
</svg>
